<?xml version="1.0" encoding="UTF-8"?>
<svg width="1200pt" height="1200pt" version="1.1" viewBox="0 0 1200 1200" xmlns="http://www.w3.org/2000/svg">
 <path d="m932.72 398.39 31.734-31.688c18.844-18.938 18.844-49.734-0.046875-68.578-18.891-18.891-49.594-18.891-68.531 0l-31.688 31.688h-0.046875c-61.641-49.078-137.29-81.375-219.84-90v-38.812h52.688c8.2031 0 14.766-6.5625 14.766-14.766v-59.016c0-8.2031-6.5625-14.766-14.766-14.766h-193.97c-8.2031 0-14.766 6.5625-14.766 14.766v59.016c0 8.2031 6.5625 14.766 14.766 14.766h52.688v38.812c-82.547 8.625-158.21 40.922-219.84 90h-0.046875l-31.688-31.688c-18.891-18.891-49.641-18.891-68.531 0-18.844 18.844-18.891 49.641 0 68.625l31.688 31.641c-57.703 72.516-92.25 164.39-92.25 264.14 0 234.28 190.69 424.97 424.97 424.97 234.28 0 424.97-190.69 424.97-424.97 0-99.75-34.594-191.63-92.25-264.14zm-15.938-79.406c7.125-7.125 19.641-7.1719 26.766 0 7.3594 7.4062 7.3594 19.453 0 26.859l-30.094 30.047s0-0.046875-0.046875-0.046875c-13.078-14.391-22.219-22.453-26.766-26.766l30.094-30.094zm-399-176.95h164.44v29.531h-164.39v-29.531zm67.453 59.016h29.531v36.844c-8.7656-0.46875-20.766-0.46875-29.531 0zm-328.74 144.84c-7.4062-7.4531-7.4062-19.5-0.046875-26.906 7.125-7.1719 19.641-7.125 26.766 0l30.094 30.094h-0.046875c-9.375 8.5312-18.234 17.391-26.719 26.719 0 0 0 0.046876-0.046875 0.046876l-30.047-30zm343.5 712.08c-218.02 0-395.44-177.42-395.44-395.44 0-218.02 177.42-395.44 395.44-395.44s395.44 177.42 395.44 395.44c0 218.02-177.42 395.44-395.44 395.44zm0-761.39c-226.6 0-365.95 188.9-365.95 365.95 0 224.06 188.72 365.95 365.95 365.95 222.66 0 365.95-185.86 365.95-365.95 0-182.53-146.26-365.95-365.95-365.95zm14.766 702v-26.953c0-8.1562-6.6094-14.766-14.766-14.766s-14.766 6.6094-14.766 14.766v26.953c-81.656-3.5625-155.86-36.281-212.26-88.125l18.891-18.891c5.7656-5.7656 5.7656-15.094 0-20.859-5.7656-5.7656-15.094-5.7656-20.859 0l-18.938 18.938-0.046874-0.046875c-51.844-56.438-84.609-130.64-88.125-212.26h26.953c8.1562 0 14.766-6.6094 14.766-14.766s-6.6094-14.766-14.766-14.766h-26.953c3.5625-81.656 36.281-155.86 88.125-212.26l18.938 18.938c5.7656 5.7656 15.094 5.7656 20.859 0 5.7656-5.7656 5.7656-15.094 0-20.859l-18.938-18.938 0.046876-0.046875c56.438-51.844 130.64-84.609 212.26-88.125v27c0 8.1562 6.6094 14.766 14.766 14.766s14.766-6.6094 14.766-14.766v-27c81.656 3.5625 155.86 36.281 212.26 88.125l0.046876 0.046875-18.938 18.938c-5.7656 5.7656-5.7656 15.094 0 20.859 5.7656 5.7656 15.094 5.7656 20.859 0l18.938-18.938c51.844 56.438 84.609 130.64 88.125 212.26h-26.953c-8.1562 0-14.766 6.6094-14.766 14.766s6.6094 14.766 14.766 14.766h26.953c-3.5625 81.656-36.281 155.86-88.125 212.26l-0.046874 0.046875-18.938-18.938c-5.7656-5.7656-15.094-5.7656-20.859 0-5.7656 5.7656-5.7656 15.094 0 20.859l18.891 18.891c-56.438 51.844-130.64 84.609-212.26 88.125zm30.938-311.29c4.0312-7.3594 6.3281-15.844 6.3281-24.797 0-23.531-15.75-43.5-37.266-49.828v-112.41c0-8.2031-6.5625-14.766-14.766-14.766s-14.766 6.5625-14.766 14.766v112.41c-21.516 6.3281-37.266 26.297-37.266 49.828 0 28.734 23.344 52.125 52.031 52.125 8.9531 0 17.391-2.2969 24.797-6.3281h0.09375l108.56 108.56c6.1406 5.9531 15.375 5.5312 20.906 0 5.7188-5.8125 5.7188-15.094 0-20.906zm-45.703-2.2031c-12.375 0-22.5-10.125-22.5-22.594 0-12 9.7031-22.5 22.5-22.5s22.5 10.5 22.5 22.5c0 12.469-10.125 22.594-22.5 22.594z"/>
</svg>
