<svg xmlns="http://www.w3.org/2000/svg" viewBox="0 0 24 24" fill="none">
  <path d="M12 2C12 2 8 6 8 10C8 12 9 13.5 10 14.5C9 15 8.5 16 8.5 17C8.5 19.5 10 21 12 22C14 21 15.5 19.5 15.5 17C15.5 16 15 15 14 14.5C15 13.5 16 12 16 10C16 6 12 2 12 2Z" fill="#FF6B35"/>
  <path d="M12 6C12 6 10 8 10 10C10 11 10.5 11.75 11 12.25C10.5 12.5 10.25 13 10.25 13.5C10.25 14.75 11 15.5 12 16C13 15.5 13.75 14.75 13.75 13.5C13.75 13 13.5 12.5 13 12.25C13.5 11.75 14 11 14 10C14 8 12 6 12 6Z" fill="#FFD93D"/>
</svg>

