<?xml version="1.0" encoding="UTF-8"?>
<svg width="180" height="180" viewBox="0 0 1200 1200" xmlns="http://www.w3.org/2000/svg">
  <rect x="0" y="0" width="1200" height="1200" rx="240" fill="#12121c"/>
  <path
    d="m694.78 1037.6c-169.03 3.7031-302.72-43.969-357-92.672 32.062-56.109 44.906-136.55 7.125-186.42-71.297-69.609-108.66-154.13-112.03-253.55 2.5781-342.19 369.28-432.05 590.26-251.95 42.234 38.719 66.234 89.438 72 152.11 5.0156 54.75-15.375 66.938 16.078 127.26l50.156 68.531c12.281 22.688 4.7812 36.703-22.406 42.094l-20.625 4.6406c-8.25 2.4844-10.922 8.3906-8.0156 17.625 6.6094 13.031 9.9375 19.594 9.9375 19.594 11.719 21.844 5.8125 38.438-17.719 49.781-2.1094 5.9062 2.8594 15.938 14.859 30.094 3.8438 12.516-2.2969 24.75-18.422 36.75-12.094 11.25-14.625 24.797-7.6406 40.734 13.969 26.25 7.9688 45.141-18.141 56.625-20.438 8.3906-44.812 11.25-72.984 8.625-45.469-7.9688-76.875 8.8125-94.312 50.344zm-169.69-323.34c-83.719-167.68 120.66-75.656 73.547-244.4 76.219 92.531 74.719 154.69-10.359 248.02 71.344-20.578 133.87-72.469 136.5-151.82 4.9688-146.63-204.71-167.76-110.34-327-100.78 53.062-105.47 133.13-107.48 228.98-0.9375 39.469-42.656 47.812-52.641 12.797-7.5469-26.391-4.4531-57.516 9.2812-81.094-100.08 104.06-87.938 263.58 61.5 314.53z"
    fill="#ff71ce"
    fill-rule="evenodd"
  />
</svg>
